<svg id="Layer_1" data-name="Layer 1" xmlns="http://www.w3.org/2000/svg" viewBox="0 0 87.49 57.39"><defs><style>.cls-1{opacity:0.35;}.cls-2,.cls-29,.cls-52{fill:#fff;}.cls-18,.cls-25,.cls-26,.cls-3,.cls-4,.cls-5,.cls-7{fill:#4f66af;}.cls-3{opacity:0.44;}.cls-4{opacity:0.29;}.cls-32,.cls-5{opacity:0.18;}.cls-11,.cls-12,.cls-13,.cls-16,.cls-17,.cls-22,.cls-28,.cls-43,.cls-44,.cls-6{fill:#6895ce;}.cls-6,.cls-7,.cls-8{opacity:0.6;}.cls-10,.cls-19,.cls-27,.cls-8,.cls-9{fill:#3f499c;}.cls-10{font-size:4.85px;letter-spacing:0.04em;}.cls-10,.cls-19,.cls-52{font-family:Exo2-Black, Exo2 Black;font-weight:800;}.cls-11,.cls-12,.cls-13,.cls-22{font-family:Exo2-Bold, Exo2 Bold;font-weight:700;}.cls-11{letter-spacing:0.04em;}.cls-12{letter-spacing:0.05em;}.cls-14,.cls-32,.cls-33,.cls-34,.cls-48{fill:#383449;}.cls-15,.cls-31{fill:#edf1f7;}.cls-15{opacity:0.03;}.cls-17,.cls-26{opacity:0.36;}.cls-18,.cls-27,.cls-28,.cls-29{opacity:0.89;}.cls-19{font-size:3.06px;letter-spacing:0.04em;}.cls-20{letter-spacing:0.05em;}.cls-21{letter-spacing:0.04em;}.cls-22{letter-spacing:0.01em;}.cls-23{letter-spacing:0.03em;}.cls-24{letter-spacing:-0.04em;}.cls-30{fill:#ca2128;}.cls-31{opacity:0.06;}.cls-33{opacity:0.32;}.cls-34{opacity:0.42;}.cls-35{fill:#f8dcd2;}.cls-36{opacity:0.13;}.cls-37,.cls-38,.cls-41,.cls-42{fill:#f0929d;}.cls-38,.cls-46{opacity:0.37;}.cls-39{fill:#f7a9aa;opacity:0.68;}.cls-40{fill:#f69da5;}.cls-41,.cls-44{opacity:0.12;}.cls-42{opacity:0.27;}.cls-43{opacity:0.17;}.cls-45{fill:#dcdbdb;}.cls-47{fill:#465fab;}.cls-48{opacity:0.11;}.cls-49{fill:#3d60ac;}.cls-50{fill:#accded;}.cls-51{fill:none;stroke:#c0def4;stroke-linecap:round;stroke-linejoin:round;stroke-width:0;}.cls-52{font-size:4.23px;letter-spacing:0.04em;}.cls-53{fill:#b33b26;}.cls-54{fill:#ef3f24;}.cls-55{opacity:0.1;}</style></defs><g class="cls-1"><path class="cls-2" d="M197.94,332.09a8.63,8.63,0,1,1,8.21-8.62A8.43,8.43,0,0,1,197.94,332.09Zm0-17.1a8.49,8.49,0,1,0,8.08,8.48A8.3,8.3,0,0,0,197.94,315Z" transform="translate(-132.1 -307.8)"/><path class="cls-2" d="M197.94,330.08c-4.53,0-8.21-3-8.21-6.61s3.68-6.61,8.21-6.61,8.21,3,8.21,6.61S202.47,330.08,197.94,330.08Zm0-13.08c-4.45,0-8.08,2.9-8.08,6.47s3.63,6.47,8.08,6.47S206,327,206,323.47,202.39,317,197.94,317Z" transform="translate(-132.1 -307.8)"/><path class="cls-2" d="M197.94,328.43c-4.53,0-8.21-2.23-8.21-5s3.68-5,8.21-5,8.21,2.22,8.21,5S202.47,328.43,197.94,328.43Zm0-9.78c-4.45,0-8.08,2.16-8.08,4.82s3.63,4.81,8.08,4.81,8.08-2.16,8.08-4.81S202.39,318.65,197.94,318.65Z" transform="translate(-132.1 -307.8)"/><path class="cls-2" d="M197.94,327.2c-4.53,0-8.21-1.67-8.21-3.73s3.68-3.74,8.21-3.74,8.21,1.68,8.21,3.74S202.47,327.2,197.94,327.2Zm0-7.32c-4.45,0-8.08,1.61-8.08,3.59s3.63,3.59,8.08,3.59,8.08-1.61,8.08-3.59S202.39,319.88,197.94,319.88Z" transform="translate(-132.1 -307.8)"/><path class="cls-2" d="M197.94,324.91c-4,0-8.21-.54-8.21-1.44s4.17-1.44,8.21-1.44,8.21.54,8.21,1.44S202,324.91,197.94,324.91Zm0-2.73c-4.83,0-8.08.66-8.08,1.29s3.25,1.29,8.08,1.29,8.08-.67,8.08-1.29S202.77,322.18,197.94,322.18Z" transform="translate(-132.1 -307.8)"/><path class="cls-2" d="M197.94,332.09c-3.47,0-6.3-3.87-6.3-8.62s2.83-8.62,6.3-8.62,6.3,3.86,6.3,8.62S201.41,332.09,197.94,332.09Zm0-17.1c-3.4,0-6.16,3.8-6.16,8.48s2.76,8.48,6.16,8.48,6.16-3.81,6.16-8.48S201.34,315,197.94,315Z" transform="translate(-132.1 -307.8)"/><path class="cls-2" d="M197.94,332.09c-2.6,0-4.72-3.87-4.72-8.62s2.12-8.62,4.72-8.62,4.72,3.86,4.72,8.62S200.54,332.09,197.94,332.09Zm0-17.1c-2.53,0-4.59,3.8-4.59,8.48s2.06,8.48,4.59,8.48,4.59-3.81,4.59-8.48S200.47,315,197.94,315Z" transform="translate(-132.1 -307.8)"/><path class="cls-2" d="M197.94,332.09c-2,0-3.56-3.87-3.56-8.62s1.6-8.62,3.56-8.62,3.56,3.86,3.56,8.62S199.9,332.09,197.94,332.09Zm0-17.1c-1.89,0-3.42,3.8-3.42,8.48s1.53,8.48,3.42,8.48,3.42-3.81,3.42-8.48S199.83,315,197.94,315Z" transform="translate(-132.1 -307.8)"/><path class="cls-2" d="M197.94,332.09c-.86,0-1.37-4.38-1.37-8.62s.51-8.62,1.37-8.62,1.37,4.38,1.37,8.62S198.8,332.09,197.94,332.09Zm0-17.1c-.59,0-1.23,3.41-1.23,8.48s.64,8.48,1.23,8.48,1.23-3.41,1.23-8.48S198.54,315,197.94,315Z" transform="translate(-132.1 -307.8)"/></g><g class="cls-1"><path class="cls-2" d="M151.54,353.22a8.64,8.64,0,1,1,8.21-8.63A8.43,8.43,0,0,1,151.54,353.22Zm0-17.11a8.49,8.49,0,1,0,8.07,8.48A8.3,8.3,0,0,0,151.54,336.11Z" transform="translate(-132.1 -307.8)"/><path class="cls-2" d="M151.54,351.2c-4.53,0-8.21-3-8.21-6.61S147,338,151.54,338s8.21,3,8.21,6.61S156.07,351.2,151.54,351.2Zm0-13.07c-4.45,0-8.08,2.9-8.08,6.46s3.63,6.47,8.08,6.47,8.07-2.9,8.07-6.47S156,338.13,151.54,338.13Z" transform="translate(-132.1 -307.8)"/><path class="cls-2" d="M151.54,349.55c-4.53,0-8.21-2.22-8.21-5s3.68-4.95,8.21-4.95,8.21,2.22,8.21,4.95S156.07,349.55,151.54,349.55Zm0-9.77c-4.45,0-8.08,2.16-8.08,4.81s3.63,4.82,8.08,4.82,8.07-2.16,8.07-4.82S156,339.78,151.54,339.78Z" transform="translate(-132.1 -307.8)"/><path class="cls-2" d="M151.54,348.33c-4.53,0-8.21-1.68-8.21-3.74s3.68-3.73,8.21-3.73,8.21,1.67,8.21,3.73S156.07,348.33,151.54,348.33Zm0-7.33c-4.45,0-8.08,1.61-8.08,3.59s3.63,3.6,8.08,3.6,8.07-1.62,8.07-3.6S156,341,151.54,341Z" transform="translate(-132.1 -307.8)"/><path class="cls-2" d="M151.54,346c-4,0-8.21-.54-8.21-1.44s4.17-1.43,8.21-1.43,8.21.53,8.21,1.43S155.58,346,151.54,346Zm0-2.73c-4.83,0-8.08.67-8.08,1.29s3.25,1.3,8.08,1.3,8.07-.67,8.07-1.3S156.37,343.3,151.54,343.3Z" transform="translate(-132.1 -307.8)"/><path class="cls-2" d="M151.54,353.22c-3.47,0-6.3-3.87-6.3-8.63s2.83-8.62,6.3-8.62,6.3,3.87,6.3,8.62S155,353.22,151.54,353.22Zm0-17.11c-3.4,0-6.16,3.81-6.16,8.48s2.76,8.48,6.16,8.48,6.16-3.8,6.16-8.48S154.94,336.11,151.54,336.11Z" transform="translate(-132.1 -307.8)"/><path class="cls-2" d="M151.54,353.22c-2.61,0-4.72-3.87-4.72-8.63s2.11-8.62,4.72-8.62,4.72,3.87,4.72,8.62S154.14,353.22,151.54,353.22Zm0-17.11c-2.53,0-4.59,3.81-4.59,8.48s2.06,8.48,4.59,8.48,4.58-3.8,4.58-8.48S154.07,336.11,151.54,336.11Z" transform="translate(-132.1 -307.8)"/><path class="cls-2" d="M151.54,353.22c-2,0-3.56-3.87-3.56-8.63s1.6-8.62,3.56-8.62,3.56,3.87,3.56,8.62S153.5,353.22,151.54,353.22Zm0-17.11c-1.89,0-3.42,3.81-3.42,8.48s1.53,8.48,3.42,8.48,3.42-3.8,3.42-8.48S153.43,336.11,151.54,336.11Z" transform="translate(-132.1 -307.8)"/><path class="cls-2" d="M151.54,353.22c-.86,0-1.37-4.39-1.37-8.63s.51-8.62,1.37-8.62,1.37,4.38,1.37,8.62S152.4,353.22,151.54,353.22Zm0-17.11c-.6,0-1.23,3.41-1.23,8.48s.63,8.48,1.23,8.48,1.23-3.41,1.23-8.48S152.13,336.11,151.54,336.11Z" transform="translate(-132.1 -307.8)"/></g><path class="cls-2" d="M135.77,328.83a.49.49,0,0,1-.35-.15l-1.11-1.17a.24.24,0,0,0-.16-.07h-1.36a.7.7,0,0,1-.69-.72V324a.71.71,0,0,1,.69-.72h4.38a.71.71,0,0,1,.68.72v2.68a.7.7,0,0,1-.68.72h-.69a.23.23,0,0,0-.22.24v.63a.5.5,0,0,1-.3.48A.43.43,0,0,1,135.77,328.83Zm-3-5.22a.42.42,0,0,0-.41.43v2.68a.43.43,0,0,0,.41.44h1.36a.45.45,0,0,1,.35.15l1.11,1.16a.22.22,0,0,0,.24.06.23.23,0,0,0,.14-.22v-.63a.5.5,0,0,1,.49-.52h.69a.43.43,0,0,0,.41-.44V324a.43.43,0,0,0-.41-.43Z" transform="translate(-132.1 -307.8)"/><path class="cls-2" d="M133.68,325.84a.43.43,0,0,1,0-.86.43.43,0,0,1,0,.86Zm0-.72a.29.29,0,0,0,0,.58.29.29,0,0,0,0-.58Z" transform="translate(-132.1 -307.8)"/><path class="cls-2" d="M135,325.91a.43.43,0,0,1,0-.86.43.43,0,0,1,0,.86Zm0-.72a.29.29,0,0,0,0,.58.29.29,0,0,0,0-.58Z" transform="translate(-132.1 -307.8)"/><path class="cls-2" d="M136.21,325.91a.43.43,0,0,1,0-.86.43.43,0,0,1,0,.86Zm0-.72a.29.29,0,0,0,0,.58.29.29,0,0,0,0-.58Z" transform="translate(-132.1 -307.8)"/><path class="cls-2" d="M216.71,347.66a.35.35,0,0,1-.17,0,.43.43,0,0,1-.25-.4v-.5a.15.15,0,0,0-.14-.15h-.54a.57.57,0,0,1-.56-.59v-2.09a.58.58,0,0,1,.56-.59H219a.58.58,0,0,1,.56.59V346a.57.57,0,0,1-.56.59H218a.16.16,0,0,0-.1.05l-.86.91A.43.43,0,0,1,216.71,347.66Zm-1.1-4.07a.29.29,0,0,0-.29.3V346a.3.3,0,0,0,.29.31h.54a.42.42,0,0,1,.41.43v.5a.16.16,0,0,0,.09.14.12.12,0,0,0,.15,0l.87-.9a.37.37,0,0,1,.29-.13H219a.3.3,0,0,0,.29-.31v-2.09a.29.29,0,0,0-.29-.3Z" transform="translate(-132.1 -307.8)"/><path class="cls-2" d="M218.34,345.31a.36.36,0,1,1,.33-.35A.35.35,0,0,1,218.34,345.31Zm0-.56a.2.2,0,0,0-.2.21.2.2,0,1,0,.2-.21Z" transform="translate(-132.1 -307.8)"/><path class="cls-2" d="M217.32,345.36A.34.34,0,0,1,217,345a.34.34,0,1,1,.67,0A.34.34,0,0,1,217.32,345.36Zm0-.56a.21.21,0,0,0-.2.21.2.2,0,1,0,.4,0A.21.21,0,0,0,217.32,344.8Z" transform="translate(-132.1 -307.8)"/><path class="cls-2" d="M216.36,345.36A.34.34,0,0,1,216,345a.34.34,0,1,1,.67,0A.34.34,0,0,1,216.36,345.36Zm0-.56a.21.21,0,0,0-.2.21.2.2,0,1,0,.4,0A.21.21,0,0,0,216.36,344.8Z" transform="translate(-132.1 -307.8)"/><path class="cls-2" d="M210.92,311.3a.36.36,0,0,1-.25-.11l-.68-.72-.06,0h-.84a.49.49,0,0,1-.47-.5V308.3a.49.49,0,0,1,.47-.5h2.69a.49.49,0,0,1,.47.5V310a.49.49,0,0,1-.47.5h-.42a.09.09,0,0,0-.08.08v.39a.38.38,0,0,1-.22.35A.32.32,0,0,1,210.92,311.3Zm-1.83-3.21a.21.21,0,0,0-.2.21V310a.2.2,0,0,0,.2.21h.84a.33.33,0,0,1,.25.11l.68.72a.09.09,0,0,0,.1,0s0,0,0-.08v-.39a.37.37,0,0,1,.35-.37h.42a.2.2,0,0,0,.2-.21V308.3a.21.21,0,0,0-.2-.21Z" transform="translate(-132.1 -307.8)"/><path class="cls-2" d="M209.64,309.43a.29.29,0,0,1,0-.58.29.29,0,0,1,0,.58Zm0-.44a.15.15,0,1,0,.14.15A.15.15,0,0,0,209.64,309Z" transform="translate(-132.1 -307.8)"/><path class="cls-2" d="M210.44,309.48a.3.3,0,0,1,0-.59.28.28,0,0,1,.27.29A.28.28,0,0,1,210.44,309.48Zm0-.44a.15.15,0,0,0-.15.14.15.15,0,0,0,.15.15.15.15,0,0,0,.14-.15A.14.14,0,0,0,210.44,309Z" transform="translate(-132.1 -307.8)"/><path class="cls-2" d="M211.19,309.48a.3.3,0,0,1,0-.59.3.3,0,0,1,0,.59Zm0-.44a.14.14,0,0,0-.14.14.14.14,0,1,0,.28,0A.14.14,0,0,0,211.19,309Z" transform="translate(-132.1 -307.8)"/><path class="cls-2" d="M153.5,316.76h47a.25.25,0,0,1,.25.25V357.1a.26.26,0,0,1-.26.26h-47a.26.26,0,0,1-.26-.26V317A.25.25,0,0,1,153.5,316.76Z" transform="translate(-292.39 205.84) rotate(-89.93)"/><path class="cls-3" d="M153.5,316.76h47a.25.25,0,0,1,.25.25V357.1a.26.26,0,0,1-.26.26h-47a.26.26,0,0,1-.26-.26V317A.25.25,0,0,1,153.5,316.76Z" transform="translate(-292.39 205.84) rotate(-89.93)"/><path class="cls-2" d="M152.86,317.4h47a.26.26,0,0,1,.26.26v40.09a.25.25,0,0,1-.25.25h-47a.26.26,0,0,1-.26-.26V317.65a.25.25,0,0,1,.25-.25Z" transform="translate(-293.67 205.83) rotate(-89.93)"/><path class="cls-4" d="M152.86,317.4h47a.26.26,0,0,1,.26.26v40.09a.25.25,0,0,1-.25.25h-47a.26.26,0,0,1-.26-.26V317.65a.25.25,0,0,1,.25-.25Z" transform="translate(-293.67 205.83) rotate(-89.93)"/><path class="cls-2" d="M152.52,318H198.9a.25.25,0,0,1,.25.25V358a.25.25,0,0,1-.25.25H152.52a.26.26,0,0,1-.26-.26V318.28a.25.25,0,0,1,.25-.25Z" transform="translate(-294.72 205.61) rotate(-89.93)"/><path class="cls-5" d="M152.52,318H198.9a.25.25,0,0,1,.25.25V358a.25.25,0,0,1-.25.25H152.52a.26.26,0,0,1-.26-.26V318.28a.25.25,0,0,1,.25-.25Z" transform="translate(-294.72 205.61) rotate(-89.93)"/><path class="cls-2" d="M152.19,318.77h45.75a.26.26,0,0,1,.26.26v39.24a.25.25,0,0,1-.25.25H152.19a.25.25,0,0,1-.25-.25V319a.25.25,0,0,1,.25-.25Z" transform="matrix(0, -1, 1, 0, -295.89, 205.5)"/><rect class="cls-6" x="164.67" y="319.01" width="8.2" height="23.92" rx="0.16" transform="translate(-294.51 191.53) rotate(-89.93)"/><rect class="cls-7" x="171.08" y="322.27" width="8.2" height="36.36" rx="0.23" transform="translate(-297.59 207.41) rotate(-89.93)"/><rect class="cls-7" x="25" y="39.46" width="36.13" height="0.63"/><rect class="cls-7" x="25" y="37.78" width="36.13" height="0.63"/><rect class="cls-7" x="25" y="41.15" width="30.74" height="0.63"/><rect class="cls-8" x="158.33" y="349.42" width="8.2" height="11.3" rx="0.16" transform="translate(-324.94 209.27) rotate(-89.93)"/><rect class="cls-7" x="171.07" y="349.44" width="8.2" height="11.3" rx="0.16" transform="translate(-312.23 222.02) rotate(-89.93)"/><rect class="cls-6" x="183.71" y="349.45" width="8.2" height="11.3" rx="0.16" transform="translate(-299.62 234.68) rotate(-89.93)"/><path class="cls-8" d="M193,327.83H182.05a.19.19,0,0,1-.19-.19h0a.18.18,0,0,1,.19-.18H193a.18.18,0,0,1,.19.19h0A.18.18,0,0,1,193,327.83Z" transform="translate(-132.1 -307.8)"/><path class="cls-8" d="M193,329H182.05a.19.19,0,0,1-.19-.19h0a.19.19,0,0,1,.19-.19l10.92,0a.18.18,0,0,1,.19.18h0A.18.18,0,0,1,193,329Z" transform="translate(-132.1 -307.8)"/><path class="cls-8" d="M193,330.07l-10.92,0a.18.18,0,0,1-.19-.18h0a.18.18,0,0,1,.19-.19H193a.19.19,0,0,1,.19.19h0A.19.19,0,0,1,193,330.07Z" transform="translate(-132.1 -307.8)"/><path class="cls-8" d="M193,331.18H182a.18.18,0,0,1-.18-.19h0a.18.18,0,0,1,.18-.18H193a.2.2,0,0,1,.19.19h0A.19.19,0,0,1,193,331.18Z" transform="translate(-132.1 -307.8)"/><path class="cls-8" d="M193,332.3H182a.19.19,0,0,1-.19-.19h0a.19.19,0,0,1,.19-.18H193a.19.19,0,0,1,.19.19h0A.19.19,0,0,1,193,332.3Z" transform="translate(-132.1 -307.8)"/><path class="cls-8" d="M193,333.42H182a.2.2,0,0,1-.19-.19h0A.2.2,0,0,1,182,333l10.93,0a.19.19,0,0,1,.19.18h0A.19.19,0,0,1,193,333.42Z" transform="translate(-132.1 -307.8)"/><path class="cls-8" d="M193,334.54l-10.93,0a.19.19,0,0,1-.19-.18h0a.19.19,0,0,1,.19-.19H193a.19.19,0,0,1,.18.19h0A.19.19,0,0,1,193,334.54Z" transform="translate(-132.1 -307.8)"/><path class="cls-9" d="M184.74,325.4l-27.8,0a.13.13,0,0,1-.13-.13v-.49a.13.13,0,0,1,.13-.13l27.8,0a.13.13,0,0,1,.14.13v.48A.13.13,0,0,1,184.74,325.4Z" transform="translate(-132.1 -307.8)"/><text class="cls-10" transform="matrix(1.01, 0, 0, 1, 27.14, 14.81)">WORLD <tspan class="cls-11" x="17.75" y="0">N</tspan><tspan class="cls-12" x="21.13" y="0">E</tspan><tspan class="cls-13" x="23.75" y="0">WS</tspan></text><rect class="cls-9" x="190.36" y="314.76" width="0.93" height="4.9" transform="translate(-258.72 199.85) rotate(-89.93)"/><path class="cls-9" d="M212.17,362.36H196.6a2.4,2.4,0,0,1-2.41-2.38V328a2.4,2.4,0,0,1,2.41-2.38h15.57a2.4,2.4,0,0,1,2.41,2.38v32A2.4,2.4,0,0,1,212.17,362.36Z" transform="translate(-132.1 -307.8)"/><path class="cls-14" d="M212.17,362.36H196.6a2.4,2.4,0,0,1-2.41-2.38V328a2.4,2.4,0,0,1,2.41-2.38h15.57a2.4,2.4,0,0,1,2.41,2.38v32A2.4,2.4,0,0,1,212.17,362.36Z" transform="translate(-132.1 -307.8)"/><path class="cls-15" d="M211.65,361.82H196.91a2.3,2.3,0,0,1-2.28-2.31v-31a2.3,2.3,0,0,1,2.28-2.32h14.74a2.3,2.3,0,0,1,2.28,2.32v31A2.3,2.3,0,0,1,211.65,361.82Z" transform="translate(-132.1 -307.8)"/><path class="cls-2" d="M211.87,361.5h-15a1.62,1.62,0,0,1-1.63-1.61v-31.6a1.62,1.62,0,0,1,1.63-1.61h15a1.62,1.62,0,0,1,1.62,1.61v31.6A1.62,1.62,0,0,1,211.87,361.5Z" transform="translate(-132.1 -307.8)"/><path class="cls-16" d="M213.32,327.71a.65.65,0,0,0-.32-.57,1.63,1.63,0,0,0-1.13-.46h-15a1.62,1.62,0,0,0-1.44.86,1,1,0,0,0,0,.17Z" transform="translate(-132.1 -307.8)"/><path class="cls-2" d="M210.81,327.28a.17.17,0,0,1-.17.17.17.17,0,0,1-.18-.17.18.18,0,0,1,.18-.17A.18.18,0,0,1,210.81,327.28Z" transform="translate(-132.1 -307.8)"/><path class="cls-2" d="M211.5,327.28a.17.17,0,0,1-.34,0,.17.17,0,0,1,.34,0Z" transform="translate(-132.1 -307.8)"/><path class="cls-2" d="M212.2,327.28a.17.17,0,0,1-.18.17.17.17,0,0,1-.17-.17.18.18,0,0,1,.17-.17A.18.18,0,0,1,212.2,327.28Z" transform="translate(-132.1 -307.8)"/><path class="cls-14" d="M201,326.67l1.05.87a.57.57,0,0,0,.41.17h4a.64.64,0,0,0,.49-.22l.85-.82Z" transform="translate(-132.1 -307.8)"/><path class="cls-14" d="M201,326.67l1.05.87a.57.57,0,0,0,.41.17h4a.64.64,0,0,0,.49-.22l.85-.82Z" transform="translate(-132.1 -307.8)"/><path class="cls-17" d="M204.86,346.78h-7.42c-.16,0-.29-.07-.29-.16v-7.3c0-.09.13-.17.29-.17h7.42c.16,0,.29.08.29.17v7.3C205.15,346.71,205,346.78,204.86,346.78Z" transform="translate(-132.1 -307.8)"/><path class="cls-18" d="M211.72,351.1H197.06a.11.11,0,0,1-.12-.1v-2.55a.11.11,0,0,1,.12-.1h14.66a.11.11,0,0,1,.11.1V351A.11.11,0,0,1,211.72,351.1Z" transform="translate(-132.1 -307.8)"/><text class="cls-19" transform="matrix(1.01, 0, 0, 1, 68.07, 24.4)">N<tspan class="cls-20" x="2.13" y="0">E</tspan><tspan class="cls-21" x="3.79" y="0">WS </tspan><tspan class="cls-22"><tspan x="-0.27" y="3.67">T</tspan><tspan class="cls-21" x="1.29" y="3.67">O</tspan><tspan class="cls-23" x="3.52" y="3.67">D</tspan><tspan class="cls-24" x="5.64" y="3.67">A</tspan><tspan class="cls-21" x="7.39" y="3.67">Y</tspan></tspan></text><rect class="cls-16" x="64.68" y="29.17" width="15.2" height="0.44"/><rect class="cls-16" x="64.89" y="21.98" width="0.88" height="6.1"/><rect class="cls-25" x="65.77" y="21.98" width="0.88" height="6.1"/><rect class="cls-26" x="73.48" y="31.79" width="6.39" height="0.61"/><rect class="cls-26" x="73.48" y="33.01" width="6.39" height="0.61"/><rect class="cls-26" x="73.48" y="34.24" width="6.39" height="0.61"/><rect class="cls-26" x="64.89" y="44.64" width="9.48" height="0.61"/><rect class="cls-26" x="64.89" y="45.87" width="9.48" height="0.61"/><rect class="cls-26" x="64.89" y="47.1" width="9.48" height="0.61"/><rect class="cls-26" x="73.48" y="35.47" width="6.39" height="0.61"/><rect class="cls-26" x="73.48" y="36.7" width="6.39" height="0.61"/><rect class="cls-26" x="73.48" y="37.93" width="6.39" height="0.61"/><rect class="cls-27" x="198.04" y="355.74" width="2.5" height="4.62" transform="translate(-291.1 249.1) rotate(-89.93)"/><rect class="cls-18" x="203.24" y="355.74" width="2.5" height="4.62" transform="translate(-285.91 254.32) rotate(-89.93)"/><rect class="cls-28" x="208.41" y="355.75" width="2.5" height="4.62" transform="translate(-280.75 259.49) rotate(-89.93)"/><rect class="cls-17" x="74.81" y="44.64" width="4.85" height="3.05"/><path class="cls-29" d="M201.11,345.64a2.76,2.76,0,0,1-2.77-2.74c0-.09,0-.19,0-.29v-.07h2.55a.39.39,0,0,0,.39-.37v0a.38.38,0,0,0-.38-.35h-.57a.24.24,0,0,1-.25-.23.24.24,0,0,1,.07-.18.25.25,0,0,1,.18-.08h1.07l.65,0a.36.36,0,0,0,.27-.12.38.38,0,0,0-.29-.64h-2.42l.34-.16a2.76,2.76,0,0,1,3.85,3.08l0,.07H201a.4.4,0,1,0,0,.8h.62l0,.1a.28.28,0,0,0,0,.09.4.4,0,0,0,.4.4h1l-.19.14A2.76,2.76,0,0,1,201.11,345.64Zm-2.6-2.94c0,.07,0,.14,0,.2a2.62,2.62,0,0,0,4,2.2H202a.56.56,0,0,1-.56-.56v0H201a.56.56,0,1,1,0-1.12h2.68a2.72,2.72,0,0,0,.05-.49,2.58,2.58,0,0,0-1.14-2.13.4.4,0,0,1,0,.15.58.58,0,0,1-.15.39.56.56,0,0,1-.4.17l-.64,0h-1.07a.06.06,0,0,0-.06,0,.09.09,0,0,0,0,.06.09.09,0,0,0,.09.09h.57a.52.52,0,0,1,.54.49s0,0,0,0a.54.54,0,0,1-.55.53Zm2-2.3h1.26A2.68,2.68,0,0,0,200.48,340.4Z" transform="translate(-132.1 -307.8)"/><path class="cls-29" d="M202.76,345.1H202a.56.56,0,0,1-.56-.56v0H201a.56.56,0,1,1,0-1.12h2.85l0,.09a2.74,2.74,0,0,1-1,1.6ZM201,343.55a.4.4,0,1,0,0,.8h.62l0,.1a.28.28,0,0,0,0,.09.4.4,0,0,0,.4.4h.73a2.6,2.6,0,0,0,.93-1.39Z" transform="translate(-132.1 -307.8)"/><path class="cls-29" d="M200.91,342.7h-2.56v-.09A2.76,2.76,0,0,1,200,340.4h2.08a.55.55,0,0,1,.56.52.58.58,0,0,1-.15.39.56.56,0,0,1-.4.17l-.64,0h-1.07a.06.06,0,0,0-.06,0,.09.09,0,0,0,0,.06.09.09,0,0,0,.09.09h.57a.52.52,0,0,1,.54.49s0,0,0,0A.54.54,0,0,1,200.91,342.7Zm-2.38-.16h2.38a.39.39,0,0,0,.39-.37v0a.38.38,0,0,0-.38-.35h-.57a.24.24,0,0,1-.25-.23.24.24,0,0,1,.07-.18.25.25,0,0,1,.18-.08h1.07l.65,0a.36.36,0,0,0,.27-.12.38.38,0,0,0-.29-.64h-2A2.58,2.58,0,0,0,198.53,342.54Z" transform="translate(-132.1 -307.8)"/><path class="cls-14" d="M177.13,335.6a2.38,2.38,0,0,0,.68-1.66h0a2.35,2.35,0,0,0-1.33-2.12,7.17,7.17,0,0,0,.08-1h0a6.78,6.78,0,0,0-6.81-6.73h0a6.77,6.77,0,0,0-6.8,6.73h0a7,7,0,0,0,.08,1,2.38,2.38,0,0,0-1.32,2.12h0a2.38,2.38,0,0,0,.47,1.4,6.15,6.15,0,0,0-1.36,3.87h0a6.27,6.27,0,0,0,6.31,6.23h0a6.31,6.31,0,0,0,5.14-2.62,4.4,4.4,0,0,0,2.41.71h0a4.36,4.36,0,0,0,4.39-4.33h0A4.32,4.32,0,0,0,177.13,335.6Z" transform="translate(-132.1 -307.8)"/><path class="cls-15" d="M176.32,334.3a2.07,2.07,0,0,0,.61-1.47h0a2.08,2.08,0,0,0-1.19-1.88,5.62,5.62,0,0,0,.08-.92h0a6,6,0,0,0-6-6h0a6,6,0,0,0-6.05,6h0a7,7,0,0,0,.07.92,2.11,2.11,0,0,0-1.16,1.88h0a2.05,2.05,0,0,0,.41,1.24,5.48,5.48,0,0,0-1.21,3.44h0a5.57,5.57,0,0,0,5.6,5.54h0a5.62,5.62,0,0,0,4.57-2.33,3.9,3.9,0,0,0,2.14.63h0A3.87,3.87,0,0,0,178,337.5h0A3.84,3.84,0,0,0,176.32,334.3Z" transform="translate(-132.1 -307.8)"/><path class="cls-30" d="M180.17,348.2l-1.24-3.07a2.46,2.46,0,0,0-1.6-1.43l-4.88-1.42a3.44,3.44,0,0,0-.91-.12h-4.21a3.5,3.5,0,0,0-.91.12l-4.84,1.41a2.51,2.51,0,0,0-1.62,1.46l-1.33,3.28a.11.11,0,0,0,0,.1l.46.46,2.87,2.87.14.71,0,1.65.22,10H176.5l.22-9.6,0-2.1.14-.75,2.77-2.76.41-.41A.42.42,0,0,0,180.17,348.2Z" transform="translate(-132.1 -307.8)"/><path class="cls-31" d="M179,347.47l-1.15-2.84a2.27,2.27,0,0,0-1.48-1.32L171.89,342a2.94,2.94,0,0,0-.84-.12h-3.89a3,3,0,0,0-.84.12l-4.47,1.3a2.34,2.34,0,0,0-1.5,1.35l-1.22,3a.08.08,0,0,0,0,.1l.42.42,2.65,2.65.13.66,0,1.52.2,9.29h13l.2-8.87,0-1.94.14-.7,2.55-2.55.38-.38A.39.39,0,0,0,179,347.47Z" transform="translate(-132.1 -307.8)"/><path class="cls-32" d="M171.57,351.8l3.13-8.87-1.43-.41-2.3,6.53c-.32.91-2.72.91-3,0l-2.33-6.53-1.43.41,3.16,8.87C167.79,353.07,171.13,353.07,171.57,351.8Z" transform="translate(-132.1 -307.8)"/><path class="cls-33" d="M172.36,342.26a.09.09,0,0,1,0,.05l-1.76,5c-.24.68-2,.68-2.28,0l-1.78-5s0,0,0-.05l-.1,0-.81.24,2.33,6.53c.31.91,2.71.91,3,0l2.3-6.53-.82-.24Z" transform="translate(-132.1 -307.8)"/><path class="cls-34" d="M168.31,347.31c.24.68,2,.68,2.28,0l1.76-5a.09.09,0,0,0,0-.05,3.18,3.18,0,0,0-.82-.1h-4.21a3.15,3.15,0,0,0-.81.1s0,0,0,.05Z" transform="translate(-132.1 -307.8)"/><path class="cls-14" d="M176.54,364.82a.33.33,0,0,1-.35.32,28.15,28.15,0,0,1-4.59,0c-5-.26-9.31-.58-9.31-.58v-2.14h14.24Z" transform="translate(-132.1 -307.8)"/><path class="cls-14" d="M162.13,352.24a.08.08,0,0,1-.08-.08v-2.59a.08.08,0,0,1,.16,0v2.59A.08.08,0,0,1,162.13,352.24Z" transform="translate(-132.1 -307.8)"/><path class="cls-14" d="M176.77,352.24a.08.08,0,0,1-.08-.08v-2.59a.08.08,0,0,1,.16,0v2.59A.08.08,0,0,1,176.77,352.24Z" transform="translate(-132.1 -307.8)"/><path class="cls-35" d="M174.07,332.62V331.2a2.44,2.44,0,0,0,0-.27.26.26,0,0,0-.26-.25h-2a.2.2,0,0,1-.21-.2v-.94a0,0,0,0,0-.07,0l-.56,1a.31.31,0,0,1-.3.21h-1.23a.21.21,0,0,1-.21-.26l.38-2.1a0,0,0,0,0-.08,0c-.3.64-1,2.21-1,2.21a.31.31,0,0,1-.29.18h-2a.28.28,0,0,1-.27-.28s0-1.52,0-1.49l-.24,1.48a.35.35,0,0,1-.35.29H165a.12.12,0,0,0-.12.11c0,.44,0,1.82,0,1.82h0a1.48,1.48,0,0,0-1.45,1.1,1.46,1.46,0,0,0,1.43,1.79h0v.37a4.35,4.35,0,0,0,2.47,3.9V342a.85.85,0,0,0,.06.31l1.23,3.46c.16.47,1.41.47,1.57,0l1.22-3.46a.85.85,0,0,0,.06-.31v-2a1,1,0,0,0,0-.18,4.36,4.36,0,0,0,2.58-4v-.37a1.45,1.45,0,0,0,0-2.89Z" transform="translate(-132.1 -307.8)"/><g class="cls-36"><path class="cls-37" d="M174,332.73v-1.35c0-.09,0-.17,0-.26s-.3-.09-.3-.09c1,3.9-1.28,11.86-8,6.61,0,0-.16.95,1.8,2.07v2a1,1,0,0,0,.05.3l1.18,3.29c.15.45,1.34.45,1.5,0l1.16-3.29a1,1,0,0,0,0-.3v-1.88c0-.06,0,0,0,0a4.53,4.53,0,0,0,2.63-3.93v-.34a1.4,1.4,0,0,0,0-2.76Z" transform="translate(-132.1 -307.8)"/></g><path class="cls-37" d="M164.81,335.26a.52.52,0,1,1-.51-.51A.51.51,0,0,1,164.81,335.26Z" transform="translate(-132.1 -307.8)"/><path class="cls-37" d="M175.24,335.26a.52.52,0,1,1-.51-.51A.51.51,0,0,1,175.24,335.26Z" transform="translate(-132.1 -307.8)"/><path class="cls-37" d="M163.73,334.05a.07.07,0,0,1-.07-.07.89.89,0,0,1,.89-1,.07.07,0,0,1,.07.06.07.07,0,0,1-.07.07.75.75,0,0,0-.75.82A.07.07,0,0,1,163.73,334.05Z" transform="translate(-132.1 -307.8)"/><path class="cls-37" d="M175.11,334.05a.07.07,0,0,1-.06-.07.76.76,0,0,0-.76-.82.07.07,0,0,1-.07-.07.07.07,0,0,1,.07-.06.89.89,0,0,1,.89,1A.07.07,0,0,1,175.11,334.05Z" transform="translate(-132.1 -307.8)"/><path class="cls-38" d="M169.3,340.22a4.46,4.46,0,0,1-1.91-.43v1.45l4.12-1.35-.06,0a4.55,4.55,0,0,1-1.77.36Z" transform="translate(-132.1 -307.8)"/><path class="cls-39" d="M167.13,335.89h-.9a.51.51,0,0,1-.52-.5h0a.51.51,0,0,1,.52-.51h.9a.51.51,0,0,1,.51.51h0A.5.5,0,0,1,167.13,335.89Z" transform="translate(-132.1 -307.8)"/><path class="cls-39" d="M172.54,335.89h-.9a.51.51,0,0,1-.52-.5h0a.51.51,0,0,1,.52-.51h.9a.51.51,0,0,1,.51.51h0A.5.5,0,0,1,172.54,335.89Z" transform="translate(-132.1 -307.8)"/><path class="cls-37" d="M168.77,338.86h0a.07.07,0,0,1,0-.09.78.78,0,0,1,.67-.38.76.76,0,0,1,.67.38.07.07,0,0,1,0,.09.06.06,0,0,1-.09,0,.66.66,0,0,0-.56-.31.63.63,0,0,0-.55.31A.07.07,0,0,1,168.77,338.86Z" transform="translate(-132.1 -307.8)"/><path class="cls-14" d="M167.34,334.08h0a.27.27,0,0,1-.27-.27v-.53a.27.27,0,0,1,.27-.27h0a.27.27,0,0,1,.26.27v.53A.27.27,0,0,1,167.34,334.08Z" transform="translate(-132.1 -307.8)"/><path class="cls-14" d="M171.46,334.08h0a.27.27,0,0,1-.27-.27v-.53a.27.27,0,0,1,.27-.27h0a.27.27,0,0,1,.27.27v.53A.27.27,0,0,1,171.46,334.08Z" transform="translate(-132.1 -307.8)"/><path class="cls-37" d="M170.06,335.58h-1a.24.24,0,0,1-.22-.14.25.25,0,0,1,0-.25,1.57,1.57,0,0,0,.37-1v-.91a.07.07,0,0,1,.07-.07.07.07,0,0,1,.06.07v.91a1.78,1.78,0,0,1-.39,1.1.11.11,0,0,0,0,.11.13.13,0,0,0,.1.06h1a.07.07,0,0,1,.07.06A.07.07,0,0,1,170.06,335.58Z" transform="translate(-132.1 -307.8)"/><path class="cls-14" d="M170.83,337.68h-.56a.82.82,0,0,1-.83-.81v-.28a.44.44,0,0,1,.44-.43h1.35a.42.42,0,0,1,.43.42v.29A.82.82,0,0,1,170.83,337.68Z" transform="translate(-132.1 -307.8)"/><path class="cls-40" d="M170.92,337.57h-.74a.31.31,0,0,1-.3-.3h0a.31.31,0,0,1,.3-.3h.74a.31.31,0,0,1,.3.3h0A.31.31,0,0,1,170.92,337.57Z" transform="translate(-132.1 -307.8)"/><path class="cls-14" d="M171.42,332a1,1,0,0,0,.39.13l.41.09.4.12a1,1,0,0,0,.41.07c.11,0,.19-.13.11-.32a1.17,1.17,0,0,0-.76-.53,1.11,1.11,0,0,0-.9.11C171.31,331.79,171.33,331.93,171.42,332Z" transform="translate(-132.1 -307.8)"/><path class="cls-14" d="M166.26,332.44a.89.89,0,0,0,.4-.09l.39-.13.41-.11a.86.86,0,0,0,.38-.14c.09-.08.1-.22-.08-.33a1.11,1.11,0,0,0-.92-.07,1.07,1.07,0,0,0-.71.56C166.05,332.32,166.14,332.43,166.26,332.44Z" transform="translate(-132.1 -307.8)"/><path class="cls-14" d="M174,332.68a.36.36,0,0,0-.26-.11H170.6a.36.36,0,0,0-.34.24,1.9,1.9,0,0,0-1.61,0l-.08-.12a.36.36,0,0,0-.26-.11h-3.13a.34.34,0,0,0-.25.11.36.36,0,0,0-.11.25v1a1.67,1.67,0,0,0,1.59,1.73h.67a1.67,1.67,0,0,0,1.59-1.73v-.85a1.65,1.65,0,0,1,1.56,0v.84a1.67,1.67,0,0,0,1.59,1.73h.68a1.67,1.67,0,0,0,1.59-1.73v-1h0A.36.36,0,0,0,174,332.68Zm-5.58,1.26a1.4,1.4,0,0,1-1.32,1.47h-.67a1.4,1.4,0,0,1-1.32-1.47v-1a.09.09,0,0,1,.09-.09h3.13a.11.11,0,0,1,.07,0,.06.06,0,0,1,0,.07Zm5.42,0a1.4,1.4,0,0,1-1.32,1.47h-.68a1.4,1.4,0,0,1-1.32-1.47v-1a.09.09,0,0,1,.1-.09h3.12a.09.09,0,0,1,.07,0,.07.07,0,0,1,0,.06Z" transform="translate(-132.1 -307.8)"/><path class="cls-35" d="M162,351.86,159.11,349l-1.76,7.82a1.78,1.78,0,0,0,1.37,2.13l.49.11a1.81,1.81,0,0,0,2.16-1.35l.78-3.48,0-1.65Z" transform="translate(-132.1 -307.8)"/><path class="cls-41" d="M162,351.86,159.11,349l-1.76,7.82a1.78,1.78,0,0,0,1.37,2.13l.49.11a1.81,1.81,0,0,0,2.16-1.35l.78-3.48,0-1.65Z" transform="translate(-132.1 -307.8)"/><polygon class="cls-38" points="27.86 42.04 30 46.68 30 44.01 27.86 42.04"/><path class="cls-35" d="M167.73,348.78l.37-1.34a1.79,1.79,0,0,1,.74-1l.33-.23a.38.38,0,0,1,.59.33l0,.27a2.11,2.11,0,0,1-1.8,2Z" transform="translate(-132.1 -307.8)"/><path class="cls-42" d="M167.73,348.78l.37-1.34a1.79,1.79,0,0,1,.74-1l.33-.23a.38.38,0,0,1,.59.33l0,.27a2.11,2.11,0,0,1-1.8,2Z" transform="translate(-132.1 -307.8)"/><ellipse class="cls-14" cx="37.94" cy="34.15" rx="1.34" ry="1.33"/><rect class="cls-14" x="37.33" y="35.86" width="1.22" height="4.8" rx="0.24"/><path class="cls-43" d="M169.82,348.47h0a.34.34,0,0,1-.34-.33V344a.34.34,0,0,1,.34-.34h0a.34.34,0,0,1,.34.34v4.13A.34.34,0,0,1,169.82,348.47Z" transform="translate(-132.1 -307.8)"/><rect class="cls-25" x="36.6" y="35.25" width="2.68" height="2.21" rx="0.24"/><path class="cls-44" d="M170.06,345.27H169a.24.24,0,0,1-.24-.24V343.3a.23.23,0,0,1,.24-.24h1.07Z" transform="translate(-132.1 -307.8)"/><path class="cls-9" d="M170.07,344.41a.09.09,0,0,1-.09.07h-.2a.08.08,0,0,1-.08-.07l0-.41a.45.45,0,0,1,0-.11h0a.45.45,0,0,1,0,.11l-.05.41a.08.08,0,0,1-.08.07h-.21a.08.08,0,0,1-.08-.07l-.09-.69h.23l0,.46s0,.08,0,.13h0a.59.59,0,0,0,0-.13l.05-.39a.08.08,0,0,1,.08-.07h.17a.09.09,0,0,1,.09.07l0,.4s0,.08,0,.12h0a.45.45,0,0,1,0-.12l0-.47h.23Z" transform="translate(-132.1 -307.8)"/><path class="cls-16" d="M171,344.42a.05.05,0,0,1-.06.06h-.1a.07.07,0,0,1-.07-.05l-.2-.4a.61.61,0,0,1-.05-.12h0s0,.08,0,.12v.45h-.16v-.7a.05.05,0,0,1,.06-.06h.1s.05,0,.07,0l.19.39.06.13h0a.62.62,0,0,1,0-.13v-.44H171Z" transform="translate(-132.1 -307.8)"/><path class="cls-45" d="M171.51,342.17H168.6a.11.11,0,0,1-.11-.11h0a.11.11,0,0,1,.11-.11h2.91a.11.11,0,0,1,.11.11h0A.11.11,0,0,1,171.51,342.17Z" transform="translate(-132.1 -307.8)"/><path class="cls-35" d="M171.51,346.17a.19.19,0,0,0-.3-.05l-1.42.7a4.47,4.47,0,0,0-1.46,1.17,3.65,3.65,0,0,1-.51.59l-9.7,7.55a1.72,1.72,0,0,0-.11,2.53,2.33,2.33,0,0,0,3.32,0l7.88-8.36a4.94,4.94,0,0,0,1.94-1.09A2.43,2.43,0,0,0,171.51,346.17Z" transform="translate(-132.1 -307.8)"/><path class="cls-35" d="M181.65,357.87l-2-8.81-2.77,2.76-.14.75,0,2.1.92,4.08a1.8,1.8,0,0,0,2.15,1.36l.5-.11A1.78,1.78,0,0,0,181.65,357.87Z" transform="translate(-132.1 -307.8)"/><path class="cls-41" d="M181.65,357.87l-2-8.81-2.77,2.76-.14.75,0,2.1.92,4.08a1.8,1.8,0,0,0,2.15,1.36l.5-.11A1.78,1.78,0,0,0,181.65,357.87Z" transform="translate(-132.1 -307.8)"/><polygon class="cls-38" points="46.76 42.04 44.62 46.68 44.67 44.15 46.76 42.04"/><path class="cls-35" d="M187.06,350a1.38,1.38,0,0,0,2.25.18l.73-.88a.5.5,0,0,0,0-.61h0a.51.51,0,0,0-.66-.13l-1.09.67-1.27.77Z" transform="translate(-132.1 -307.8)"/><g class="cls-46"><path class="cls-37" d="M187.06,350a1.38,1.38,0,0,0,2.25.18l.73-.88a.5.5,0,0,0,0-.61h0a.51.51,0,0,0-.66-.13l-1.09.67-1.27.77Z" transform="translate(-132.1 -307.8)"/></g><path class="cls-35" d="M192.31,348.58a.82.82,0,0,0-.78.4,1.56,1.56,0,0,1-1.51.76c-1-.11-2.47-.17-3.16.34v0l-.05,0-8.42,7.1a1.64,1.64,0,0,0-.11,2.38,2.18,2.18,0,0,0,3.12,0l7.06-7.13L191,352a.9.9,0,0,0,.79-.42l1.13-1.77A.81.81,0,0,0,192.31,348.58Z" transform="translate(-132.1 -307.8)"/><path class="cls-47" d="M200.66,308.37h10.12a1.22,1.22,0,0,1,1.23,1.22v10a1.23,1.23,0,0,1-1.23,1.23h-8.14a.66.66,0,0,0-.45.17l-1.63,1.47a.68.68,0,0,1-1.14-.5V309.59A1.23,1.23,0,0,1,200.66,308.37Z" transform="translate(-132.1 -307.8)"/><path class="cls-48" d="M200.66,308.37h10.12a1.22,1.22,0,0,1,1.23,1.22v10a1.23,1.23,0,0,1-1.23,1.23h-8.14a.66.66,0,0,0-.45.17l-1.63,1.47a.68.68,0,0,1-1.14-.5V309.59A1.23,1.23,0,0,1,200.66,308.37Z" transform="translate(-132.1 -307.8)"/><path class="cls-49" d="M201.15,308.84h9.14a1.12,1.12,0,0,1,1.12,1.11v9a1.11,1.11,0,0,1-1.12,1.1h-7.35a.62.62,0,0,0-.41.16l-1.47,1.32a.62.62,0,0,1-1-.45V310A1.12,1.12,0,0,1,201.15,308.84Z" transform="translate(-132.1 -307.8)"/><polygon class="cls-50" points="71.65 8.09 71.64 8.08 71.65 8.09 71.65 8.09"/><polygon class="cls-2" points="70.61 7.44 70.95 9.12 71.64 8.08 70.61 7.44"/><path class="cls-2" d="M209.94,311.59l-7.08,3.66a.14.14,0,0,1-.14,0h0l1,.64h0a.12.12,0,0,1,.06-.13l6.18-4.19,0,0Z" transform="translate(-132.1 -307.8)"/><path class="cls-5" d="M210,311.59h0l-7.08,3.66a.14.14,0,0,1-.14,0h0l.34,1.67.69-1h0a.12.12,0,0,1,.06-.13l6.18-4.19Z" transform="translate(-132.1 -307.8)"/><path class="cls-51" d="M210,311.56h0" transform="translate(-132.1 -307.8)"/><path class="cls-2" d="M203.75,315.89h0l.46.52,1.11,1.16a1,1,0,0,0,1.61-.2l3.06-5.8-6.18,4.19A.12.12,0,0,0,203.75,315.89Z" transform="translate(-132.1 -307.8)"/><path class="cls-2" d="M202.86,315.25l7.08-3.66h0s0,0,0,0l-8.49,1.69a.47.47,0,0,0-.19.84l1.46,1.13h0A.14.14,0,0,0,202.86,315.25Z" transform="translate(-132.1 -307.8)"/><polygon class="cls-2" points="71.65 8.09 71.64 8.08 71.64 8.08 71.64 8.08 70.95 9.12 72.11 8.61 72.11 8.61 71.65 8.09"/><polygon class="cls-4" points="71.65 8.09 71.64 8.08 71.64 8.08 71.64 8.08 70.95 9.12 72.11 8.61 72.11 8.61 71.65 8.09"/><rect class="cls-37" x="23.64" y="0.2" width="11.2" height="3.93" rx="0.22"/><text class="cls-52" transform="translate(25.26 3.66) scale(1.01 1)">LIVE</text><path class="cls-53" d="M146.7,338.94v-8.3a1,1,0,0,1,1-1h8.4a1,1,0,0,1,1,1v6.68a.57.57,0,0,0,.14.37l1.23,1.34a.55.55,0,0,1-.41.93H147.72A1,1,0,0,1,146.7,338.94Z" transform="translate(-132.1 -307.8)"/><path class="cls-48" d="M146.54,338.94v-8.3a1,1,0,0,1,1-1H156a1,1,0,0,1,1,1v6.68a.57.57,0,0,0,.14.37l1.23,1.34a.55.55,0,0,1-.41.93H147.56A1,1,0,0,1,146.54,338.94Z" transform="translate(-132.1 -307.8)"/><path class="cls-54" d="M146.7,338.79v-7.46a.94.94,0,0,1,1-.91h7.89a1,1,0,0,1,1,.91v6a.47.47,0,0,0,.13.34l1.16,1.2a.5.5,0,0,1-.39.84h-9.76A.94.94,0,0,1,146.7,338.79Z" transform="translate(-132.1 -307.8)"/><path class="cls-2" d="M150.84,337.06a.81.81,0,0,1,.23-.6,1,1,0,0,1,1.27,0,.91.91,0,0,1,0,1.21,1,1,0,0,1-1.27,0A.81.81,0,0,1,150.84,337.06Zm1.66-4.5c0,.14,0,.34,0,.6s0,.54,0,.84,0,.6-.07.9a6.65,6.65,0,0,1-.11.78l-.1.05-.16,0-.16,0h-.14a.94.94,0,0,1-.44-.08.38.38,0,0,1-.22-.31,4.56,4.56,0,0,1-.08-.62c0-.28,0-.59-.06-.92s0-.65,0-1c0-.15,0-.3,0-.43a.55.55,0,0,1,.4-.54h0a2.3,2.3,0,0,1,.45-.05.85.85,0,0,1,.58.17A.63.63,0,0,1,152.5,332.56Z" transform="translate(-132.1 -307.8)"/><g class="cls-55"><path class="cls-25" d="M151.68,336.22a.83.83,0,0,1,.64.24.91.91,0,0,1,0,1.21.86.86,0,0,1-.64.23c-.13,0,.31-.1.31-.9S151.55,336.22,151.68,336.22Zm.8-3.66c0,.14,0,.34,0,.6s0,.54,0,.84,0,.6-.07.9a6.65,6.65,0,0,1-.11.78l-.1.05-.16,0-.16,0h-.15A10.23,10.23,0,0,0,152,334a14.07,14.07,0,0,0-.25-2.09.85.85,0,0,1,.58.17A.63.63,0,0,1,152.48,332.56Z" transform="translate(-132.1 -307.8)"/></g></svg>